<svg width="767" height="302" viewBox="0 0 767 302" fill="none" xmlns="http://www.w3.org/2000/svg">
<path d="M339.376 302C354.043 302 366.959 298.75 378.126 292.25C389.293 285.583 398.043 276.5 404.376 265C410.543 253.333 413.626 239.917 413.626 224.75C413.626 211.917 411.459 200.083 407.126 189.25C402.793 178.417 396.793 169 389.126 161C381.459 152.833 372.376 146.5 361.876 142C351.376 137.5 340.043 135.25 327.876 135.25C319.376 135.25 311.209 136.333 303.376 138.5C295.543 140.5 288.376 143.5 281.876 147.5L286.626 182.5C289.293 182.5 291.459 182.083 293.126 181.25C294.793 180.417 295.709 179.417 295.876 178.25L298.126 153.5L294.126 159.75C298.293 156.25 303.959 153.5 311.126 151.5C318.293 149.333 325.793 148.25 333.626 148.25C345.293 148.25 355.459 151.083 364.126 156.75C372.793 162.25 379.459 170.167 384.126 180.5C388.793 190.833 391.126 203.083 391.126 217.25C391.126 231.75 388.793 244.417 384.126 255.25C379.293 266.083 372.626 274.5 364.126 280.5C355.626 286.5 345.793 289.5 334.626 289.5C325.959 289.5 317.876 287.75 310.376 284.25C302.709 280.75 297.043 276.167 293.376 270.5L297.876 280.25L294.876 246C291.209 246 288.543 246.333 286.876 247C285.209 247.667 284.126 248.667 283.626 250L282.126 282.5C288.793 288.5 297.293 293.25 307.626 296.75C317.959 300.25 328.543 302 339.376 302Z" fill="#3A5F78"/>
<path d="M259.25 218C244.583 218 231.667 214.75 220.5 208.25C209.333 201.583 200.583 192.5 194.25 181C188.083 169.333 185 155.917 185 140.75C185 127.917 187.167 116.083 191.5 105.25C195.833 94.4167 201.833 85 209.5 77C217.167 68.8333 226.25 62.5 236.75 58C247.25 53.5 258.583 51.25 270.75 51.25C279.25 51.25 287.417 52.3333 295.25 54.5C303.083 56.5 310.25 59.5 316.75 63.5L312 98.5C309.333 98.5 307.167 98.0833 305.5 97.25C303.833 96.4167 302.917 95.4167 302.75 94.25L300.5 69.5L304.5 75.75C300.333 72.25 294.667 69.5 287.5 67.5C280.333 65.3333 272.833 64.25 265 64.25C253.333 64.25 243.167 67.0833 234.5 72.75C225.833 78.25 219.167 86.1667 214.5 96.5C209.833 106.833 207.5 119.083 207.5 133.25C207.5 147.75 209.833 160.417 214.5 171.25C219.333 182.083 226 190.5 234.5 196.5C243 202.5 252.833 205.5 264 205.5C272.667 205.5 280.75 203.75 288.25 200.25C295.917 196.75 301.583 192.167 305.25 186.5L300.75 196.25L303.75 162C307.417 162 310.083 162.333 311.75 163C313.417 163.667 314.5 164.667 315 166L316.5 198.5C309.833 204.5 301.333 209.25 291 212.75C280.667 216.25 270.083 218 259.25 218Z" fill="black"/>
</svg>
