<svg width="885" height="302" viewBox="0 0 885 302" fill="none" xmlns="http://www.w3.org/2000/svg">
<path d="M461.888 215.152C456.256 215.152 451.296 213.904 447.008 211.408C442.72 208.848 439.36 205.36 436.928 200.944C434.56 196.464 433.376 191.312 433.376 185.488C433.376 180.56 434.208 176.016 435.872 171.856C437.536 167.696 439.84 164.08 442.784 161.008C445.728 157.872 449.216 155.44 453.248 153.712C457.28 151.984 461.632 151.12 466.304 151.12C469.568 151.12 472.704 151.536 475.712 152.368C478.72 153.136 481.472 154.288 483.968 155.824L482.144 169.264C481.12 169.264 480.288 169.104 479.648 168.784C479.008 168.464 478.656 168.08 478.592 167.632L477.728 158.128L479.264 160.528C477.664 159.184 475.488 158.128 472.736 157.36C469.984 156.528 467.104 156.112 464.096 156.112C459.616 156.112 455.712 157.2 452.384 159.376C449.056 161.488 446.496 164.528 444.704 168.496C442.912 172.464 442.016 177.168 442.016 182.608C442.016 188.176 442.912 193.04 444.704 197.2C446.56 201.36 449.12 204.592 452.384 206.896C455.648 209.2 459.424 210.352 463.712 210.352C467.04 210.352 470.144 209.68 473.024 208.336C475.968 206.992 478.144 205.232 479.552 203.056L477.824 206.8L478.976 193.648C480.384 193.648 481.408 193.776 482.048 194.032C482.688 194.288 483.104 194.672 483.296 195.184L483.872 207.664C481.312 209.968 478.048 211.792 474.08 213.136C470.112 214.48 466.048 215.152 461.888 215.152ZM504.934 215.152C501.926 215.152 499.43 214.288 497.446 212.56C495.462 210.768 494.47 208.4 494.47 205.456C494.47 201.808 495.622 198.832 497.926 196.528C500.294 194.224 503.814 192.528 508.486 191.44L521.062 188.56L519.814 189.616V182.416C519.814 179.024 519.238 176.56 518.086 175.024C516.934 173.424 515.142 172.624 512.71 172.624C509.766 172.624 507.494 173.52 505.894 175.312C504.294 177.04 503.494 179.568 503.494 182.896C503.174 183.216 502.726 183.472 502.15 183.664C501.574 183.856 500.998 183.952 500.422 183.952C499.334 183.952 498.47 183.632 497.83 182.992C497.19 182.352 496.87 181.488 496.87 180.4C496.87 178.288 497.606 176.432 499.078 174.832C500.55 173.232 502.566 171.984 505.126 171.088C507.75 170.128 510.662 169.648 513.862 169.648C518.598 169.648 522.054 170.832 524.23 173.2C526.47 175.568 527.59 179.344 527.59 184.528V207.088C527.59 208.176 527.814 209.008 528.262 209.584C528.71 210.16 529.35 210.448 530.182 210.448C530.886 210.448 531.654 210.256 532.486 209.872C533.382 209.488 534.118 209.072 534.694 208.624L535.366 211.216C534.342 212.432 533.03 213.392 531.43 214.096C529.83 214.8 528.294 215.152 526.822 215.152C524.774 215.152 523.174 214.512 522.022 213.232C520.87 211.888 520.294 210 520.294 207.568H519.91C518.118 210 515.91 211.888 513.286 213.232C510.662 214.512 507.878 215.152 504.934 215.152ZM508.582 210.64C510.886 210.64 513.094 210.064 515.206 208.912C517.318 207.76 519.078 206.16 520.486 204.112L519.91 205.744V191.344L521.158 191.536L510.214 194.128C507.462 194.768 505.35 195.888 503.878 197.488C502.47 199.024 501.766 200.976 501.766 203.344C501.766 205.584 502.374 207.376 503.59 208.72C504.806 210 506.47 210.64 508.582 210.64ZM541.157 214C541.157 212.912 541.285 212.112 541.541 211.6C541.797 211.088 542.181 210.736 542.693 210.544L548.453 208.72L547.397 210.064V147.568L548.549 149.008L542.597 147.952C541.637 147.76 541.157 146.64 541.157 144.592C543.269 144.272 545.061 144.016 546.533 143.824C548.005 143.632 549.413 143.536 550.757 143.536C553.701 143.536 555.173 145.392 555.173 149.104V209.872L554.021 208.624L561.797 210.448C561.797 211.408 561.669 212.144 561.413 212.656C561.221 213.104 560.773 213.552 560.069 214H541.157ZM570.238 214C570.238 211.952 570.75 210.8 571.773 210.544L577.246 208.72L576.19 210.064V174.736L577.342 176.176L571.678 175.12C570.718 174.928 570.238 173.808 570.238 171.76C572.67 171.376 574.494 171.12 575.71 170.992C576.99 170.8 578.046 170.704 578.878 170.704C580.542 170.704 581.726 171.12 582.43 171.952C583.134 172.784 583.486 174.128 583.486 175.984V179.536L583.102 179.248H583.966C586.398 176.304 589.214 173.968 592.414 172.24C595.678 170.512 598.782 169.648 601.726 169.648C605.31 169.648 607.966 170.928 609.694 173.488C611.422 176.048 612.286 179.92 612.286 185.104V210.256L611.134 208.912L617.662 210.448C617.662 211.408 617.534 212.144 617.278 212.656C617.086 213.104 616.67 213.552 616.03 214H599.23C599.23 211.952 599.742 210.8 600.766 210.544L605.566 209.104L604.51 210.448V185.296C604.51 178.512 602.11 175.12 597.31 175.12C595.518 175.12 593.726 175.504 591.934 176.272C590.142 176.976 588.478 177.968 586.942 179.248C585.47 180.464 584.222 181.808 583.198 183.28L583.966 181.456V210.256L582.814 208.912L589.342 210.448C589.342 211.408 589.214 212.144 588.958 212.656C588.766 213.104 588.318 213.552 587.614 214H570.238ZM627.55 214C627.55 211.952 628.062 210.8 629.086 210.544L633.886 209.104L632.83 210.448V185.296C632.83 178.512 630.43 175.12 625.63 175.12C623.006 175.12 620.414 175.92 617.854 177.52C615.358 179.056 613.31 180.944 611.71 183.184L610.654 179.248H612.094C614.59 176.304 617.438 173.968 620.638 172.24C623.902 170.512 627.006 169.648 629.95 169.648C633.598 169.648 636.286 170.928 638.014 173.488C639.742 176.048 640.606 179.92 640.606 185.104V209.872L639.454 208.624L646.558 210.448C646.558 211.408 646.43 212.144 646.174 212.656C645.982 213.104 645.566 213.552 644.926 214H627.55ZM675.925 215.152C674.005 215.152 671.829 214.96 669.397 214.576C666.965 214.192 664.533 213.648 662.101 212.944C659.733 212.176 657.557 211.312 655.573 210.352L657.301 197.392C657.813 196.496 658.645 196.048 659.797 196.048C660.117 196.048 660.437 196.08 660.757 196.144C661.141 196.144 661.429 196.208 661.621 196.336L662.293 209.68L660.565 205.936C661.845 206.896 663.381 207.76 665.173 208.528C666.965 209.232 668.789 209.808 670.645 210.256C672.565 210.704 674.389 210.928 676.117 210.928C679.829 210.928 682.837 209.84 685.141 207.664C687.509 205.488 688.693 202.704 688.693 199.312C688.693 197.392 688.277 195.728 687.445 194.32C686.677 192.912 685.237 191.536 683.125 190.192C681.077 188.848 678.133 187.344 674.293 185.68C670.261 183.824 667.061 182.032 664.693 180.304C662.325 178.512 660.629 176.56 659.605 174.448C658.581 172.336 658.069 169.904 658.069 167.152C658.069 162.288 659.701 158.416 662.965 155.536C666.293 152.592 670.677 151.12 676.117 151.12C678.741 151.12 681.557 151.472 684.565 152.176C687.573 152.88 690.517 153.936 693.397 155.344L691.957 167.824C690.933 167.824 690.101 167.664 689.461 167.344C688.885 167.024 688.565 166.64 688.501 166.192L687.253 156.592L689.269 160.144C687.861 158.672 685.941 157.488 683.509 156.592C681.141 155.696 678.645 155.248 676.021 155.248C672.501 155.248 669.717 156.144 667.669 157.936C665.621 159.728 664.597 162.128 664.597 165.136C664.597 166.992 665.013 168.656 665.845 170.128C666.677 171.536 668.149 172.912 670.261 174.256C672.373 175.6 675.349 177.104 679.189 178.768C683.413 180.624 686.741 182.448 689.173 184.24C691.669 186.032 693.429 187.984 694.453 190.096C695.541 192.144 696.085 194.576 696.085 197.392C696.085 200.912 695.253 204.016 693.589 206.704C691.925 209.392 689.589 211.472 686.581 212.944C683.573 214.416 680.021 215.152 675.925 215.152ZM705.97 214C705.97 211.952 706.482 210.8 707.506 210.544L712.978 208.72L711.922 210.352V147.568L713.074 149.008L707.41 147.952C706.45 147.76 705.97 146.64 705.97 144.592C708.402 144.208 710.226 143.952 711.442 143.824C712.722 143.632 713.746 143.536 714.514 143.536C716.178 143.536 717.362 143.952 718.066 144.784C718.834 145.616 719.218 146.96 719.218 148.816V179.824L718.738 179.248H719.698C722.194 176.304 725.106 173.968 728.434 172.24C731.762 170.512 734.994 169.648 738.13 169.648C745.554 169.648 749.266 174.8 749.266 185.104V209.872L748.21 208.624L755.218 210.448C755.218 211.408 755.122 212.144 754.93 212.656C754.738 213.104 754.322 213.552 753.682 214H736.21C736.21 211.952 736.722 210.8 737.746 210.544L742.546 209.104L741.586 210.736V185.296C741.586 178.512 738.994 175.12 733.81 175.12C732.018 175.12 730.194 175.472 728.338 176.176C726.546 176.88 724.882 177.808 723.346 178.96C721.81 180.112 720.498 181.36 719.41 182.704L719.698 181.744V210.256L718.546 208.912L724.978 210.448C724.978 211.408 724.85 212.144 724.594 212.656C724.402 213.104 723.954 213.552 723.25 214H705.97ZM772.965 215.152C769.957 215.152 767.461 214.288 765.477 212.56C763.493 210.768 762.501 208.4 762.501 205.456C762.501 201.808 763.653 198.832 765.957 196.528C768.325 194.224 771.845 192.528 776.517 191.44L789.093 188.56L787.845 189.616V182.416C787.845 179.024 787.269 176.56 786.117 175.024C784.965 173.424 783.173 172.624 780.741 172.624C777.797 172.624 775.525 173.52 773.925 175.312C772.325 177.04 771.525 179.568 771.525 182.896C771.205 183.216 770.757 183.472 770.181 183.664C769.605 183.856 769.029 183.952 768.453 183.952C767.365 183.952 766.501 183.632 765.861 182.992C765.221 182.352 764.901 181.488 764.901 180.4C764.901 178.288 765.637 176.432 767.109 174.832C768.581 173.232 770.597 171.984 773.157 171.088C775.781 170.128 778.693 169.648 781.893 169.648C786.629 169.648 790.085 170.832 792.261 173.2C794.501 175.568 795.621 179.344 795.621 184.528V207.088C795.621 208.176 795.845 209.008 796.293 209.584C796.741 210.16 797.381 210.448 798.213 210.448C798.917 210.448 799.685 210.256 800.517 209.872C801.413 209.488 802.149 209.072 802.725 208.624L803.397 211.216C802.373 212.432 801.061 213.392 799.461 214.096C797.861 214.8 796.325 215.152 794.853 215.152C792.805 215.152 791.205 214.512 790.053 213.232C788.901 211.888 788.325 210 788.325 207.568H787.941C786.149 210 783.941 211.888 781.317 213.232C778.693 214.512 775.909 215.152 772.965 215.152ZM776.613 210.64C778.917 210.64 781.125 210.064 783.237 208.912C785.349 207.76 787.109 206.16 788.517 204.112L787.941 205.744V191.344L789.189 191.536L778.245 194.128C775.493 194.768 773.381 195.888 771.909 197.488C770.501 199.024 769.797 200.976 769.797 203.344C769.797 205.584 770.405 207.376 771.621 208.72C772.837 210 774.501 210.64 776.613 210.64ZM809.956 214C809.956 212.08 810.468 210.928 811.492 210.544L816.964 208.72L815.908 210.352V174.736L817.06 176.176L811.396 175.12C810.948 174.992 810.596 174.672 810.34 174.16C810.084 173.584 809.956 172.784 809.956 171.76C812.452 171.376 814.308 171.12 815.524 170.992C816.74 170.8 817.764 170.704 818.596 170.704C820.132 170.704 821.284 171.152 822.052 172.048C822.82 172.88 823.204 174.288 823.204 176.272V180.304L822.628 179.728H823.588C825.316 176.72 827.428 174.288 829.924 172.432C832.484 170.576 834.916 169.648 837.22 169.648C839.652 169.648 841.38 170.192 842.404 171.28C843.428 172.304 843.94 173.616 843.94 175.216C843.94 176.432 843.556 177.488 842.788 178.384C842.084 179.28 841.156 179.728 840.004 179.728C839.108 178.064 838.18 176.944 837.22 176.368C836.26 175.792 835.204 175.504 834.052 175.504C832.26 175.504 830.372 176.304 828.388 177.904C826.404 179.504 824.612 181.424 823.012 183.664L823.684 181.84V210.256L822.34 208.528L830.692 210.352C830.692 211.312 830.564 212.048 830.308 212.56C830.116 213.072 829.668 213.552 828.964 214H809.956ZM866.065 215.152C862.161 215.152 858.737 214.288 855.793 212.56C852.913 210.768 850.673 208.304 849.073 205.168C847.473 202.032 846.673 198.416 846.673 194.32C846.673 189.648 847.633 185.456 849.553 181.744C851.537 178.032 854.161 175.088 857.424 172.912C860.689 170.736 864.241 169.648 868.081 169.648C871.409 169.648 874.289 170.416 876.721 171.952C879.217 173.424 881.169 175.504 882.577 178.192C883.985 180.88 884.689 183.984 884.689 187.504C884.689 188.72 884.465 189.552 884.017 190C883.569 190.384 883.057 190.576 882.481 190.576H852.241V187.6L878.353 186.928L877.297 187.984C877.425 184.912 877.041 182.256 876.145 180.016C875.313 177.776 874.097 176.048 872.497 174.832C870.961 173.552 869.137 172.912 867.025 172.912C863.505 172.912 860.625 174.544 858.385 177.808C856.145 181.072 855.025 185.68 855.025 191.632C855.025 195.472 855.569 198.832 856.657 201.712C857.809 204.528 859.473 206.736 861.649 208.336C863.825 209.936 866.449 210.736 869.521 210.736C872.081 210.736 874.545 210.096 876.913 208.816C879.281 207.472 881.393 205.616 883.249 203.248L884.497 205.648C883.153 207.568 881.489 209.264 879.505 210.736C877.521 212.144 875.377 213.232 873.073 214C870.833 214.768 868.497 215.152 866.065 215.152Z" fill="black"/>
<path d="M339.376 302C354.043 302 366.959 298.75 378.126 292.25C389.293 285.583 398.043 276.5 404.376 265C410.543 253.333 413.626 239.917 413.626 224.75C413.626 211.917 411.459 200.083 407.126 189.25C402.793 178.417 396.793 169 389.126 161C381.459 152.833 372.376 146.5 361.876 142C351.376 137.5 340.043 135.25 327.876 135.25C319.376 135.25 311.209 136.333 303.376 138.5C295.543 140.5 288.376 143.5 281.876 147.5L286.626 182.5C289.293 182.5 291.459 182.083 293.126 181.25C294.793 180.417 295.709 179.417 295.876 178.25L298.126 153.5L294.126 159.75C298.293 156.25 303.959 153.5 311.126 151.5C318.293 149.333 325.793 148.25 333.626 148.25C345.293 148.25 355.459 151.083 364.126 156.75C372.793 162.25 379.459 170.167 384.126 180.5C388.793 190.833 391.126 203.083 391.126 217.25C391.126 231.75 388.793 244.417 384.126 255.25C379.293 266.083 372.626 274.5 364.126 280.5C355.626 286.5 345.793 289.5 334.626 289.5C325.959 289.5 317.876 287.75 310.376 284.25C302.709 280.75 297.043 276.167 293.376 270.5L297.876 280.25L294.876 246C291.209 246 288.543 246.333 286.876 247C285.209 247.667 284.126 248.667 283.626 250L282.126 282.5C288.793 288.5 297.293 293.25 307.626 296.75C317.959 300.25 328.543 302 339.376 302Z" fill="#3A5F78"/>
<path d="M259.25 218C244.583 218 231.667 214.75 220.5 208.25C209.333 201.583 200.583 192.5 194.25 181C188.083 169.333 185 155.917 185 140.75C185 127.917 187.167 116.083 191.5 105.25C195.833 94.4167 201.833 85 209.5 77C217.167 68.8333 226.25 62.5 236.75 58C247.25 53.5 258.583 51.25 270.75 51.25C279.25 51.25 287.417 52.3333 295.25 54.5C303.083 56.5 310.25 59.5 316.75 63.5L312 98.5C309.333 98.5 307.167 98.0833 305.5 97.25C303.833 96.4167 302.917 95.4167 302.75 94.25L300.5 69.5L304.5 75.75C300.333 72.25 294.667 69.5 287.5 67.5C280.333 65.3333 272.833 64.25 265 64.25C253.333 64.25 243.167 67.0833 234.5 72.75C225.833 78.25 219.167 86.1667 214.5 96.5C209.833 106.833 207.5 119.083 207.5 133.25C207.5 147.75 209.833 160.417 214.5 171.25C219.333 182.083 226 190.5 234.5 196.5C243 202.5 252.833 205.5 264 205.5C272.667 205.5 280.75 203.75 288.25 200.25C295.917 196.75 301.583 192.167 305.25 186.5L300.75 196.25L303.75 162C307.417 162 310.083 162.333 311.75 163C313.417 163.667 314.5 164.667 315 166L316.5 198.5C309.833 204.5 301.333 209.25 291 212.75C280.667 216.25 270.083 218 259.25 218Z" fill="black"/>
</svg>
